# xmcd
#
# Track frame offsets:
#	150
#	13836
#	26937
#	40802
#	55477
#	68305
#	80170
#	93705
#	105556
#	120434
#
# Disc length: 1777 seconds
#
# Revision: 0
# Processed by: cddbd v1.5.2PL0 Copyright (c) Steve Scherf et al.
# Submitted via: dBpowerAMP V4.0
#
DISCID=8106ef0a
DTITLE=Billie Holliday - Portrait of Billie Holliday
DYEAR=2005
DGENRE=Blues
TTITLE0=My Man
TTITLE1=Summertime
TTITLE2=The Way You Look Tonight
TTITLE3=Can't Help Lovin' Dat Man
TTITLE4=A Fine Romance
TTITLE5=Let's Call The Whole Thing Off
TTITLE6=What A Little Moonlight Can Do
TTITLE7=He's Funny That Way
TTITLE8=These Foolish Things
TTITLE9=You Go To My Head
EXTD=Portrait of Billie Holliday. Disc one of a two disc set
EXTT0=
EXTT1=
EXTT2=
EXTT3=
EXTT4=
EXTT5=
EXTT6=
EXTT7=
EXTT8=
EXTT9=
PLAYORDER=
